<?xml version="1.0" encoding="utf-8"?>
<!-- Generator: Adobe Illustrator 19.1.0, SVG Export Plug-In . SVG Version: 6.00 Build 0)  -->
<svg version="1.1" id="Layer_1" xmlns="http://www.w3.org/2000/svg" xmlns:xlink="http://www.w3.org/1999/xlink" x="0px" y="0px"
	 viewBox="-545 370.9 100 100" style="enable-background:new -545 370.9 100 100;" xml:space="preserve">
<style type="text/css">
	.st0{fill:#FFFFFF;}
</style>
<g>
	<path class="st0" d="M-495.1,374.9c-25.4,0-46,20.6-46,46c0,25.4,20.6,46,46,46c25.4,0,46-20.6,46-46
		C-449.2,395.5-469.8,374.9-495.1,374.9z M-495.1,464.8c-24.2,0-44-19.7-44-44s19.7-44,44-44c24.2,0,44,19.7,44,44
		C-451.2,445.1-470.9,464.8-495.1,464.8z"/>
	<path class="st0" d="M-480.7,393.1h-8.8c-7.2,0-13.3,6.8-13.3,14.9v3.2h-7c-0.6,0-1,0.4-1,1v10.9c0,0.6,0.4,1,1,1h7v23.6
		c0,0.6,0.4,1,1,1h10.2c0.6,0,1-0.4,1-1v-23.6h9.9c0.6,0,1-0.4,1-1v-10.9c0-0.6-0.4-1-1-1h-9.9v-3.3c0-1.3,0.8-1.9,1.1-1.9h8.8
		c0.6,0,1-0.4,1-1v-10.9C-479.7,393.5-480.1,393.1-480.7,393.1z M-481.7,404h-7.8c-1.5,0-3.1,1.6-3.1,3.9v4.3c0,0.6,0.4,1,1,1h9.9
		v8.9h-9.9c-0.6,0-1,0.4-1,1v23.6h-8.2v-23.6c0-0.6-0.4-1-1-1h-7v-8.9h7c0.6,0,1-0.4,1-1V408c0-7,5.2-12.9,11.3-12.9h7.8V404z"/>
</g>
</svg>
