<?xml version="1.0" encoding="utf-8"?>
<!-- Generator: Adobe Illustrator 19.1.0, SVG Export Plug-In . SVG Version: 6.00 Build 0)  -->
<svg version="1.1" id="Layer_1" xmlns="http://www.w3.org/2000/svg" xmlns:xlink="http://www.w3.org/1999/xlink" x="0px" y="0px"
	 viewBox="-545 370.9 100 100" style="enable-background:new -545 370.9 100 100;" xml:space="preserve">
<style type="text/css">
	.st0{fill:#FFFFFF;}
</style>
<g>
	<path class="st0" d="M-495.1,466.8c25.4,0,46-20.6,46-46c0-25.4-20.6-46-46-46s-46,20.6-46,46
		C-541.1,446.1-520.4,466.8-495.1,466.8z M-495.1,376.8c24.2,0,44,19.7,44,44c0,24.2-19.7,44-44,44c-24.3,0-44-19.7-44-44
		C-539.1,396.5-519.3,376.8-495.1,376.8z"/>
	<path class="st0" d="M-509.8,441.9h29.4c3.5,0,6.4-2.9,6.4-6.4v-19.4c0-0.6-0.4-1-1-1h-8.5c-0.3,0-0.7,0.2-0.9,0.5
		c-0.2,0.3-0.2,0.7,0,1c0.9,1.7,1.3,3.6,1.3,5.5c0,6.6-5.4,12.1-12.1,12.1c-6.6,0-12.1-5.4-12.1-12.1c0-1.9,0.4-3.8,1.3-5.5
		c0.2-0.3,0.1-0.7,0-1c-0.2-0.3-0.5-0.5-0.9-0.5h-8.5c-0.6,0-1,0.4-1,1v19.4C-516.2,439-513.3,441.9-509.8,441.9z M-514.2,417.1h6
		c-0.6,1.6-0.9,3.2-0.9,5c0,7.8,6.3,14.1,14.1,14.1c7.8,0,14.1-6.3,14.1-14.1c0-1.7-0.3-3.4-0.9-5h6v18.4c0,2.4-2,4.4-4.4,4.4h-29.4
		c-2.4,0-4.4-2-4.4-4.4V417.1z"/>
	<path class="st0" d="M-483.6,412.3h2.8c2.3,0,4.2-1.9,4.2-4.2v-2.8c0-2.3-1.9-4.2-4.2-4.2h-2.8c-2.3,0-4.2,1.9-4.2,4.2v2.8
		C-487.8,410.4-485.9,412.3-483.6,412.3z M-485.8,405.3c0-1.2,1-2.2,2.2-2.2h2.8c1.2,0,2.2,1,2.2,2.2v2.8c0,1.2-1,2.2-2.2,2.2h-2.8
		c-1.2,0-2.2-1-2.2-2.2C-485.8,408.1-485.8,405.3-485.8,405.3z"/>
	<path class="st0" d="M-495.1,431.3c5.1,0,9.3-4.2,9.3-9.3c0-5.1-4.2-9.3-9.3-9.3s-9.3,4.2-9.3,9.3
		C-504.3,427.2-500.2,431.3-495.1,431.3z M-495.1,414.8c4,0,7.3,3.3,7.3,7.3s-3.3,7.3-7.3,7.3s-7.3-3.3-7.3-7.3
		S-499.1,414.8-495.1,414.8z"/>
	<path class="st0" d="M-509.8,445.8h29.4c5.7,0,10.3-4.6,10.3-10.3v-29.4c0-5.7-4.6-10.3-10.3-10.3h-29.4c-5.7,0-10.3,4.6-10.3,10.3
		v29.4C-520.1,441.2-515.5,445.8-509.8,445.8z M-518.1,406.1c0-4.6,3.7-8.3,8.3-8.3h29.4c4.6,0,8.3,3.7,8.3,8.3v29.4
		c0,4.6-3.7,8.3-8.3,8.3h-29.4c-4.6,0-8.3-3.7-8.3-8.3V406.1z"/>
</g>
</svg>
