<?xml version="1.0" encoding="utf-8"?>
<!-- Generator: Adobe Illustrator 19.1.0, SVG Export Plug-In . SVG Version: 6.00 Build 0)  -->
<svg version="1.1" id="Layer_1" xmlns="http://www.w3.org/2000/svg" xmlns:xlink="http://www.w3.org/1999/xlink" x="0px" y="0px"
	 viewBox="-545 370.9 100 100" style="enable-background:new -545 370.9 100 100;" xml:space="preserve">
<style type="text/css">
	.st0{fill:#FFFFFF;}
</style>
<g>
	<path class="st0" d="M-495.3,466.8c25.4,0,46-20.6,46-46c0-25.4-20.6-46-46-46c-25.4,0-46,20.6-46,46
		C-541.2,446.1-520.6,466.8-495.3,466.8z M-495.3,376.8c24.2,0,44,19.7,44,44s-19.7,44-44,44c-24.2,0-44-19.7-44-44
		C-539.2,396.5-519.5,376.8-495.3,376.8z"/>
	<path class="st0" d="M-507.4,410.7h-9.1c-0.6,0-1,0.4-1,1v29.4c0,0.6,0.4,1,1,1h9.1c0.6,0,1-0.4,1-1v-29.4
		C-506.4,411.1-506.9,410.7-507.4,410.7z M-508.4,440.1h-7.1v-27.4h7.1V440.1z"/>
	<path class="st0" d="M-501.6,442.1h8.7c0.6,0,1-0.4,1-1v-15.5c0-2.6,0.8-5.6,4.6-5.6c1,0,4,0,4,5.6v15.5c0,0.6,0.4,1,1,1h9.1
		c0.6,0,1-0.4,1-1v-18.6c0-8-4.4-12.7-11.7-12.7c-3.8,0-6.3,1.6-7.9,3.1v-1.2c0-0.6-0.4-1-1-1h-8.7c-0.6,0-1,0.4-1,1v29.4
		C-502.6,441.7-502.1,442.1-501.6,442.1z M-500.6,412.7h6.7v3c0,0.5,0.3,0.9,0.8,1c0.4,0.1,0.9-0.1,1.1-0.5c0,0,2.4-4.3,8-4.3
		c6.2,0,9.7,3.9,9.7,10.7v17.6h-7.1v-14.5c0-6.6-3.7-7.6-6-7.6c-4.1,0-6.6,2.8-6.6,7.6v14.5h-6.7V412.7z"/>
	<path class="st0" d="M-512,408.8c3.5,0,6.4-2.9,6.4-6.4c0-3.5-2.9-6.4-6.4-6.4c-3.5,0-6.4,2.9-6.4,6.4
		C-518.4,405.9-515.5,408.8-512,408.8z M-512,397.9c2.4,0,4.4,2,4.4,4.4c0,2.4-2,4.4-4.4,4.4c-2.4,0-4.4-2-4.4-4.4
		C-516.4,399.9-514.4,397.9-512,397.9z"/>
</g>
</svg>
