<?xml version="1.0" encoding="utf-8"?>
<!-- Generator: Adobe Illustrator 19.1.0, SVG Export Plug-In . SVG Version: 6.00 Build 0)  -->
<svg version="1.1" id="Layer_1" xmlns="http://www.w3.org/2000/svg" xmlns:xlink="http://www.w3.org/1999/xlink" x="0px" y="0px"
	 viewBox="-545 370.9 100 100" style="enable-background:new -545 370.9 100 100;" xml:space="preserve">
<style type="text/css">
	.st0{fill:#FFFFFF;}
</style>
<g>
	<path class="st0" d="M-495.3,374.8c-25.4,0-46,20.6-46,46s20.6,46,46,46c25.4,0,46-20.6,46-46S-470,374.8-495.3,374.8z
		 M-495.3,464.7c-24.2,0-44-19.7-44-44s19.7-44,44-44c24.2,0,44,19.7,44,44C-451.3,445-471.1,464.7-495.3,464.7z"/>
	<path class="st0" d="M-493.8,392.9c-8.8,0-14.2,3.6-17.1,6.6c-3.7,3.7-5.8,8.7-5.8,13.5c0,6.2,2.6,10.9,6.9,12.6
		c1.3,0.5,2.5-0.1,2.9-1.4c0.1-0.2,0.2-0.6,0.3-1c0.1-0.5,0.3-1.1,0.4-1.4c0.3-1.1,0.1-1.7-0.6-2.6c-1.2-1.4-1.8-3.1-1.8-5.4
		c0-8.9,7.3-13.7,14.1-13.7c7.3,0,11.8,4.1,11.8,10.8c0,8.7-3.8,15.3-8.7,15.3c-1.3,0-2.5-0.5-3.2-1.5c-0.7-0.9-0.9-2-0.6-3.2
		c0.3-1.4,0.8-2.8,1.2-4.2c0.8-2.6,1.5-5,1.5-6.9c0-3.4-2.1-5.6-5.1-5.6c-3.9,0-6.9,3.9-6.9,8.9c0,2.4,0.6,4.2,0.9,4.9l-3.9,16.4
		c-1,4.2-0.5,9.3-0.1,11.9l0,0.1c0.1,0.7,0.7,1.2,1.4,1.2c0.4,0,0.9-0.2,1.2-0.6c1.3-1.7,4.5-6,5.7-10.3c0.3-0.9,1.1-4.3,1.7-6.5
		c1.7,1.6,4.4,2.6,7,2.6c10.2,0,17.5-9.3,17.5-22C-473.4,402.4-481.1,392.9-493.8,392.9z M-491,431.5c-3.1,0-5.8-1.7-6.6-3.3
		c-0.2-0.4-0.6-0.6-1-0.5c-0.4,0-0.8,0.3-0.9,0.7c0,0.1-1.8,7.1-2.2,8.4c-0.9,3.3-3.1,6.6-4.5,8.6c-0.4-3.8-0.4-7.2,0.3-9.9
		l3.9-16.7c0.1-0.2,0-0.5-0.1-0.7c0,0-0.9-1.8-0.9-4.4c0-3.9,2.2-6.9,4.9-6.9c2.9,0,3.1,2.8,3.1,3.6c0,1.6-0.7,3.9-1.4,6.3
		c-0.4,1.4-0.9,2.9-1.2,4.3c-0.4,1.8-0.1,3.5,1,4.9c1.1,1.4,2.9,2.2,4.8,2.2c6.1,0,10.7-7.4,10.7-17.3c0-7.7-5.4-12.8-13.8-12.8
		c-9.2,0-16.1,6.7-16.1,15.7c0,2.7,0.7,4.9,2.3,6.7c0.3,0.4,0.3,0.4,0.2,0.8c-0.1,0.3-0.2,0.9-0.4,1.5c-0.1,0.4-0.2,0.8-0.3,1
		c0,0.1,0,0.1,0,0.1c0,0-0.1,0-0.1,0c-3.5-1.4-5.7-5.5-5.7-10.8c0-12.5,12.2-18.2,20.9-18.2c11.5,0,18.4,8.4,18.4,16.6
		C-475.4,423.3-481.8,431.5-491,431.5z"/>
</g>
</svg>
